<?xml version="1.0" encoding="UTF-8"?>
<svg xmlns="http://www.w3.org/2000/svg" width="369.315" height="515.395" viewBox="0 0 369.315 515.395">
  <g isolation="isolate">
    <g id="b" data-name="Layer 2">
      <g id="c" data-name="Layer 1">
        <g>
          <g>
            <path d="m322.165,336.39c-10.014,0-26.74-5.298-39.489-36.01-.938-2.26.133-4.853,2.394-5.791,2.259-.937,4.853.135,5.791,2.395,8.999,21.683,21.666,32.698,34.735,30.232,13.022-2.457,23.879-17.366,24.202-33.234.05-2.447,2.064-4.464,4.52-4.34,2.447.05,4.39,2.074,4.34,4.52-.41,20.17-14.211,38.515-31.417,41.763-1.373.259-3.093.467-5.075.467Z" fill="#fff"/>
            <path d="m355.215,301.947c-1.081,0-2.141-.159-3.154-.482-2.492-.793-8.223-3.782-7.627-14.38.48-8.53-.613-11.862-.749-12.237-1.325-2.75-.278-6.088,2.429-7.573,2.799-1.536,6.313-.512,7.849,2.287.48.874,1.735,3.738,2.069,10.147,2.08-.273,3.876-.282,5.451-.032,3.527.56,5.415,2.354,6.378,3.76,2.122,3.098,1.909,7.156-.584,11.132-1.567,2.5-3.791,4.589-6.261,5.881-1.896.992-3.882,1.497-5.803,1.497Zm-11.396-26.839c.003.005.006.011.009.016-.003-.006-.006-.011-.009-.016Zm-.004-.007s.002.004.004.007c-.001-.002-.002-.004-.004-.007Zm-.143-.288h0s0,0,0,0Z" fill="#fff"/>
          </g>
          <g>
            <path d="m36.837,380.616c-17.733,0-34.301-14.852-36.597-33.16-1.076-8.571-.67-37.335,49.686-47.666,2.402-.484,4.739,1.056,5.231,3.451.492,2.398-1.053,4.738-3.45,5.231-28.952,5.939-44.905,20.099-42.674,37.881,1.809,14.41,15.031,26.062,28.881,25.375,2.426-.076,4.519,1.771,4.635,4.217.115,2.444-1.772,4.52-4.216,4.636-.499.023-.997.034-1.494.034Z" fill="#fff"/>
            <path d="m44.169,389.968c-1.356,0-2.697-.194-3.974-.6-5.693-1.811-8.853-7.125-8.454-14.215.516-9.165,5.767-12.214,10.11-12.038,2.562.103,5.034,1.312,6.973,3.141,3.767.867,6.799,2.852,8.598,5.758,2.079,3.36,2.132,7.422.139,10.601-2.85,4.545-8.228,7.351-13.391,7.352Z" fill="#fff"/>
          </g>
          <g mix-blend-mode="multiply" opacity=".5">
            <ellipse cx="174.529" cy="492.974" rx="147.6" ry="22.42"/>
          </g>
          <path d="m207.299,488.54c-.099,0-.199-.003-.299-.011-7.505-.499-11.352-3.366-11.765-3.691-1.228-.965-1.857-2.505-1.656-4.054l6.761-52.122c.315-2.426,2.54-4.136,4.964-3.823,2.426.315,4.139,2.537,3.824,4.965l-6.356,48.992c1.124.375,2.719.752,4.817.893,2.441.161,4.289,2.274,4.126,4.715-.156,2.34-2.104,4.136-4.416,4.136Z" fill="#fff"/>
          <path d="m106.308,488.847c-2.097,0-3.96-1.494-4.352-3.629-.443-2.406,1.149-4.716,3.555-5.16,2.36-.434,6.115-1.346,8.061-2.187,2.341-4.772,8.27-28.417,12.887-49.583.522-2.39,2.875-3.91,5.273-3.384,2.391.521,3.906,2.882,3.384,5.273-11.359,52.071-14.625,53.978-16.38,55.004-3.464,2.024-10.291,3.349-11.624,3.594-.271.05-.54.073-.805.073Z" fill="#fff"/>
          <g>
            <path d="m232.881,20.05c-.396-8.567-6.652-15.638-14.923-16.821-30.091-4.305-60.181-4.305-90.272,0-8.27,1.184-14.526,8.254-14.923,16.821-.298,6.434-.543,12.867-.781,19.3h121.68c-.239-6.433-.484-12.867-.781-19.3Z" fill="#45d5da"/>
            <path d="m232.881,20.05c-.396-8.567-6.652-15.638-14.923-16.821-30.091-4.305-60.181-4.305-90.272,0-8.27,1.184-14.526,8.254-14.923,16.821-.298,6.434-.543,12.867-.781,19.3h121.68c-.239-6.433-.484-12.867-.781-19.3Z" fill="#45d5da"/>
            <g mix-blend-mode="soft-light">
              <path d="m112.764,24.234c.396-8.567,6.652-15.638,14.923-16.821,30.091-4.305,60.181-4.305,90.272,0,8.27,1.184,14.526,8.254,14.923,16.821.233,5.039.421,10.078.612,15.117h.169c-.239-6.433-.484-12.867-.781-19.301-.396-8.566-6.652-15.637-14.923-16.821-30.091-4.306-60.181-4.306-90.272,0-8.27,1.184-14.526,8.254-14.923,16.821-.298,6.434-.543,12.868-.781,19.301h.169c.191-5.039.379-10.078.612-15.117Z" fill="#fff"/>
            </g>
            <g mix-blend-mode="multiply">
              <path d="m227.297,33.764c-.359-7.162-6.034-13.073-13.535-14.063-27.293-3.599-54.586-3.599-81.879,0-7.501.99-13.176,6.901-13.535,14.063-.27,5.379-.492,10.757-.709,16.136h110.367c-.216-5.378-.439-10.757-.709-16.136Z" fill="#88dbdb"/>
            </g>
            <g>
              <path d="m264.064,439.506c-60.828,7.72-121.656,7.72-182.484,0-16.718-2.122-29.364-14.8-30.165-30.16-6.058-116.128-6.058-232.256,0-348.384.801-15.361,13.448-28.039,30.166-30.16,60.828-7.72,121.655-7.72,182.483,0,16.718,2.122,29.364,14.8,30.166,30.16,6.058,116.129,6.058,232.257,0,348.384-.801,15.361-13.448,28.039-30.165,30.16Z" fill="#45d5da"/>
              <g mix-blend-mode="overlay">
                <path d="m294.229,60.961c-.801-15.361-13.447-28.039-30.165-30.16-60.828-7.72-121.655-7.72-182.483,0-16.718,2.122-29.364,14.8-30.166,30.16-6.058,116.129-6.058,232.257,0,348.384.801,15.361,13.448,28.039,30.165,30.16,60.828,7.72,121.656,7.72,182.484,0,16.718-2.122,29.364-14.8,30.165-30.16,6.058-116.128,6.058-232.256,0-348.384Zm-3.043,345.274c-.781,15.086-13.11,27.538-29.409,29.622-59.304,7.583-118.607,7.583-177.91,0-16.299-2.084-28.628-14.535-29.41-29.622-5.906-114.054-5.906-228.108,0-342.164.782-15.087,13.111-27.538,29.41-29.622,59.303-7.582,118.606-7.582,177.909,0,16.299,2.084,28.629,14.535,29.41,29.622,5.907,114.055,5.907,228.109,0,342.164Z" fill="#fff"/>
              </g>
              <g mix-blend-mode="multiply">
                <path d="m59.005,140.071c-.204-35.808-1.461-64.747,18.021-83.79,19.483-19.043,165.602-18.282,185.571-7.617s22.405,56.997,22.405,89.884c0,86.075-225.511,86.837-225.998,1.523Z" fill="#c5f0f0"/>
              </g>
              <g mix-blend-mode="soft-light">
                <path d="m294.229,60.961c-.801-15.36-13.448-28.039-30.166-30.161-60.828-7.72-121.655-7.72-182.483,0-16.718,2.122-29.364,14.8-30.166,30.161-.005.098-.008.197-.013.295,3.174-12.972,15.386-23.198,30.179-25.075,60.828-7.72,121.655-7.72,182.483,0,16.223,2.059,28.878,14.019,30.347,28.761-.068-1.327-.112-2.654-.181-3.981Z" fill="#fff"/>
              </g>
              <g mix-blend-mode="overlay">
                <g mix-blend-mode="soft-light">
                  <path d="m251.51,422.091c-52.459,6.67-104.917,6.67-157.376,0-14.417-1.833-25.324-12.786-26.015-26.057-5.225-100.33-5.225-200.659,0-300.99.691-13.271,11.597-24.224,26.015-26.057,52.458-6.669,104.916-6.669,157.375,0,14.418,1.833,25.324,12.786,26.015,26.057,5.225,100.33,5.225,200.66,0,300.99-.691,13.271-11.597,24.224-26.015,26.057Z" fill="#fff"/>
                </g>
              </g>
              <path d="m247.98,417.291c-50.105,6.555-100.21,6.555-150.316,0-13.771-1.802-24.188-12.566-24.848-25.607-4.99-98.596-4.99-197.193,0-295.79.66-13.042,11.077-23.806,24.848-25.607,50.105-6.554,100.21-6.554,150.315,0,13.771,1.801,24.188,12.565,24.848,25.607,4.99,98.597,4.99,197.193,0,295.79-.66,13.042-11.077,23.806-24.848,25.607Z" fill="#73cc14"/>
              <g mix-blend-mode="multiply">
                <path d="m243.782,409.894c-29.058,7.154-111.511,8.926-140.372,1.594-10.118-2.57-60.358-32.248,68.39-32.428,114.073-.16,96.7,24.748,71.982,30.834Z" fill="#bae3e3"/>
              </g>
              <g mix-blend-mode="soft-light">
                <path d="m107.65,352.018c7.786,0,14.096-6.311,14.096-14.098s-6.31-14.097-14.096-14.097-14.097,6.311-14.097,14.097,6.312,14.098,14.097,14.098Z" fill="#e0e0e0"/>
                <path d="m104.147,386.086c0,5.704,4.626,10.33,10.329,10.33s10.331-4.626,10.331-10.33-4.626-10.331-10.331-10.331-10.329,4.626-10.329,10.331Z" fill="#e0e0e0"/>
                <path d="m225.219,119.604c4.9,0,8.873-3.972,8.873-8.874s-3.973-8.873-8.873-8.873-8.871,3.973-8.871,8.873,3.971,8.874,8.871,8.874Z" fill="#e0e0e0"/>
                <path d="m113.905,116.405c2.972,0,5.383-2.411,5.383-5.387s-2.411-5.383-5.383-5.383-5.385,2.411-5.385,5.383,2.41,5.387,5.385,5.387Z" fill="#e0e0e0"/>
                <path d="m242.906,167.187c2.974,0,5.383-2.41,5.383-5.385s-2.41-5.384-5.383-5.384-5.385,2.411-5.385,5.384,2.41,5.385,5.385,5.385Z" fill="#e0e0e0"/>
                <path d="m243.517,368.935c-2.974,0-5.385,2.411-5.385,5.385s2.411,5.384,5.385,5.384,5.383-2.41,5.383-5.384-2.412-5.385-5.383-5.385Z" fill="#e0e0e0"/>
                <path d="m153.428,365.945c4.446,0,8.047-3.604,8.047-8.048s-3.602-8.048-8.047-8.048-8.046,3.605-8.046,8.048,3.602,8.048,8.046,8.048Z" fill="#e0e0e0"/>
              </g>
              <g mix-blend-mode="overlay">
                <path d="m68.119,100.545c.691-13.271,11.598-24.224,26.015-26.058,52.459-6.669,104.916-6.669,157.375,0,14.418,1.834,25.324,12.787,26.015,26.058,2.565,49.248,3.854,98.496,3.9,147.744.049-51.082-1.24-102.163-3.9-153.245-.691-13.272-11.597-24.225-26.015-26.058-52.459-6.67-104.916-6.67-157.375,0-14.418,1.833-25.324,12.786-26.015,26.058-2.66,51.082-3.949,102.163-3.9,153.245.047-49.248,1.336-98.496,3.9-147.744Z" fill="#ccc"/>
              </g>
            </g>
            <path d="m127.931,18.423c-2.898,2.433-6.497,2.915-8.038,1.077-1.541-1.839-.44-5.302,2.458-7.735,2.898-2.433,6.497-2.915,8.038-1.077,1.541,1.839.44,5.302-2.458,7.735Z" fill="#fff"/>
            <ellipse cx="85.253" cy="63.973" rx="23.68" ry="15.451" transform="translate(-20.683 75.729) rotate(-43.216)" fill="#fff"/>
            <g mix-blend-mode="multiply">
              <path d="m185.973,98.085c-2.581-1.829-43.372,26.771-41.018,32.325,2.354,5.554,21.69-2.232,23.874,0s-16.178,25.961-13.867,29.27c2.311,3.309,42.03-35.75,40.288-39.622-1.742-3.872-20.553,3.872-21.867,0-1.314-3.872,15.171-20.144,12.59-21.972Z" fill="#a3c7c7"/>
            </g>
          </g>
          <g>
            <g>
              <path d="m199.006,277.44c-3.085-3.356-9.821-.454-20.222-.454s-17.373-2.838-20.364.454c-1.304,1.44-1.796,3.437-1.522,5.623.056.443.15.895.268,1.351,1.577,6.092,8.704,9.4,20.438,9.811.364.013.726.028,1.099.028,2.093,0,4.056-.196,5.89-.543,9.321-1.762,15.173-3.95,16.231-9.362.09-.461.137-.917.157-1.369.09-2.044-.537-3.976-1.974-5.54Z" fill="#fff"/>
              <g>
                <g mix-blend-mode="multiply">
                  <path d="m178.819,278.478c19.509,0,24.461-.907,17.745,5.61,1.976-.427,3.442-.819,4.416-1.108.09-2.044-.537-3.976-1.974-5.54-3.085-3.356-9.821-.454-20.222-.454s-17.373-2.838-20.364.454c-1.304,1.44-1.796,3.437-1.522,5.623.813.235,1.911.526,3.311.844-8.252-9.324,8.614-5.43,18.611-5.43Z" fill="#b9b9b9"/>
                </g>
                <g mix-blend-mode="multiply">
                  <path d="m161.061,284.882c-1.24-.104-2.574-.254-3.896-.467,1.577,6.092,8.704,9.4,20.438,9.811-16.007-1.809-16.595-7.432-16.542-9.344Z" fill="#b9b9b9"/>
                </g>
                <g mix-blend-mode="multiply">
                  <path d="m200.823,284.349c-1.885.323-3.823.512-5.485.622,4.823,5.482-3.221,6.291-10.746,8.74,9.321-1.762,15.173-3.95,16.231-9.362Z" fill="#b9b9b9"/>
                </g>
                <path d="m196.564,284.088c-1.556.336-3.421.693-5.635,1.037,0,0,1.879.014,4.409-.154-.12-.137-.236-.273-.373-.411,0,0,.74-.051,1.599-.472Z" fill="#231f20"/>
                <path d="m194.965,284.56c.137.138.253.275.373.411,1.662-.11,3.6-.299,5.485-.622.09-.461.137-.917.157-1.369-.974.289-2.44.682-4.416,1.108-.859.421-1.599.472-1.599.472Z" fill="#231f20"/>
                <path d="m161.061,284.882c3.11.262,5.598.243,5.598.243-2.615-.407-4.75-.831-6.451-1.217.263.226.546.44.874.621,0,0-.014.129-.02.352Z" fill="#231f20"/>
                <path d="m161.082,284.529c-.328-.181-.611-.395-.874-.621-1.4-.318-2.497-.609-3.311-.844.056.443.15.895.268,1.351,1.322.213,2.656.363,3.896.467.006-.223.02-.352.02-.352Z" fill="#231f20"/>
                <g>
                  <g mix-blend-mode="multiply">
                    <path d="m203.064,274.798s2.709,1.467,2.371,4.854c0,0,3.725-5.193-2.371-4.854Z" fill="#eae8e3"/>
                  </g>
                  <g mix-blend-mode="multiply">
                    <path d="m154.748,274.798s-2.709,1.467-2.371,4.854c0,0-3.725-5.193,2.371-4.854Z" fill="#eae8e3"/>
                  </g>
                </g>
              </g>
            </g>
            <g>
              <path d="m336.445,193.753c-1.349,1.828-5.878,4.365-9.224,6.082.12,1.39.225,8.777.225,10.278,0,27.318,3.32,76.082-66.023,76.082-47.631,0-68.452-34.258-71.912-67.95h-.178s-1.883-9.936-10.427-9.936-10.429,9.936-10.429,9.936h-.175c-3.46,33.692-24.281,67.95-71.915,67.95-69.343,0-66.02-48.764-66.02-76.082,0-1.501.105-8.888.219-10.278-3.34-1.717-7.869-4.254-9.221-6.082-2.082-2.818-2.701-7.942-1.401-8.698,4.573-2.674,16.234-8.169,33.362-11.79,17.612-3.723,60.388-5.986,98.757,4.476,11.945,3.256,41.192,3.448,53.645,0,38.282-10.596,81.148-8.199,98.757-4.476,17.128,3.62,28.789,9.116,33.365,11.79,1.296.756.68,5.881-1.404,8.698Z" fill="#00111a"/>
              <path d="m158.304,211.234c0-20.179-21.63-30.162-59.459-30.162s-57.897,6.587-57.897,31.969c0,23.145-2.812,64.455,55.932,64.455,44.477,0,61.424-35.251,61.424-66.262Z" fill="#353b42"/>
              <path d="m316.862,213.042c0-25.382-20.065-31.969-57.897-31.969s-59.459,9.983-59.459,30.162c0,31.011,16.949,66.262,61.424,66.262,58.747,0,55.932-41.309,55.932-64.455Z" fill="#353b42"/>
              <path d="m144.7,224.594c-7.974-12.771-21.517-2.156-38.58,8.498-17.062,10.655-31.183,17.315-23.209,30.085,7.974,12.771,28.27,14.486,45.333,3.831,17.062-10.654,24.43-29.644,16.456-42.414Z" fill="#292e33"/>
              <path d="m308.563,224.594c7.974,12.77.606,31.76-16.456,42.415-17.063,10.654-37.359,8.939-45.333-3.831-7.974-12.77,6.147-19.43,23.209-30.085,17.062-10.654,30.606-21.269,38.58-8.498Z" fill="#292e33"/>
              <g>
                <path d="m56.057,193.92c3.816.198,3.151,7.59,1.944,16.064-1.206,8.474-2.496,14.821-6.313,14.623-3.816-.198-5.932-7.228-4.726-15.702,1.206-8.474,5.278-15.183,9.094-14.985Z" fill="#fff"/>
                <path d="m56.855,238.577c.521,3.399-.92,6.44-3.218,6.792-2.298.352-4.583-2.118-5.103-5.518-.521-3.399.92-6.44,3.218-6.792,2.298-.352,4.583,2.118,5.103,5.518Z" fill="#fff"/>
              </g>
              <g>
                <path d="m218.786,192.963c3.816.198,3.151,7.591,1.944,16.064-1.206,8.474-2.496,14.821-6.313,14.623-3.816-.198-5.932-7.228-4.726-15.702,1.206-8.474,5.278-15.183,9.094-14.985Z" fill="#fff"/>
                <path d="m219.584,237.62c.521,3.399-.92,6.44-3.218,6.792-2.298.352-4.582-2.118-5.103-5.517s.92-6.44,3.218-6.792c2.298-.352,4.582,2.118,5.103,5.518Z" fill="#fff"/>
              </g>
            </g>
          </g>
        </g>
      </g>
    </g>
  </g>
</svg>