<?xml version="1.0" encoding="UTF-8"?>
<svg id="b" data-name="Layer 2" xmlns="http://www.w3.org/2000/svg" width="39.119" height="39.123" viewBox="0 0 39.119 39.123">
  <g id="c" data-name="Layer 1">
    <g>
      <path d="m38.533,24.294c-2.613,10.479-13.227,16.857-23.707,14.244C4.35,35.925-2.028,25.31.586,14.832,3.197,4.351,13.811-2.027,24.289.585c10.48,2.613,16.857,13.228,14.244,23.708Z" fill="#f7931a"/>
      <path d="m28.181,16.775c.389-2.603-1.592-4.002-4.302-4.936l.879-3.526-2.146-.535-.856,3.433c-.564-.141-1.144-.273-1.72-.405l.862-3.456-2.145-.535-.88,3.525c-.467-.106-.926-.212-1.371-.322l.002-.011-2.96-.739-.571,2.292s1.592.365,1.559.388c.869.217,1.026.792,1,1.248l-1.001,4.017c.06.015.138.037.223.072-.072-.018-.148-.037-.227-.056l-1.404,5.627c-.106.264-.376.66-.984.51.021.031-1.56-.389-1.56-.389l-1.065,2.457,2.793.696c.52.13,1.029.267,1.53.395l-.888,3.566,2.144.535.88-3.528c.586.159,1.154.306,1.71.444l-.877,3.512,2.146.535.888-3.56c3.66.693,6.412.413,7.57-2.897.933-2.665-.046-4.203-1.972-5.205,1.402-.323,2.459-1.246,2.74-3.151h0Zm-4.904,6.876c-.663,2.665-5.151,1.224-6.606.863l1.179-4.725c1.455.363,6.12,1.082,5.427,3.862Zm.664-6.915c-.605,2.424-4.34,1.193-5.552.891l1.069-4.285c1.212.302,5.113.866,4.483,3.395Z" fill="#fff"/>
    </g>
  </g>
</svg>