<svg height="auto" viewBox="0 0 2000 1400" xmlns="http://www.w3.org/2000/svg"><path d="M0 1391.83c26.6-11.533 79.8-27.342 133-57.663 53.2-30.32 79.8-64.666 133-93.943s79.8-32.008 133-52.441 79.8-27.039 133-49.724c53.2-22.686 79.8-27.997 133-63.705 53.2-35.707 79.8-76.295 133-114.832 53.2-38.536 79.8-46.711 133-77.852 53.2-31.14 79.8-15.998 133-77.851 53.2-61.854 79.8-209.743 133-231.417 53.2-21.674 79.8 79.529 133 123.047s79.8 99.639 133 94.543c53.2-5.096 79.8-70.882 133-120.023 53.2-49.142 79.8-64.342 133-125.686 53.2-61.344 79.8-199.718 133-181.035 53.2 18.684 106.4 219.561 133 274.451l5 762.301H0Z" fill="#3cc"/><path d="M0 1391.83c26.6-11.533 79.8-27.342 133-57.663 53.2-30.32 79.8-64.666 133-93.943s79.8-32.008 133-52.441 79.8-27.039 133-49.724c53.2-22.686 79.8-27.997 133-63.705 53.2-35.707 79.8-76.295 133-114.832 53.2-38.536 79.8-46.711 133-77.852 53.2-31.14 79.8-15.998 133-77.851 53.2-61.854 79.8-209.743 133-231.417 53.2-21.674 79.8 79.529 133 123.047s79.8 99.639 133 94.543c53.2-5.096 79.8-70.882 133-120.023 53.2-49.142 79.8-64.342 133-125.686 53.2-61.344 79.8-199.718 133-181.035 53.2 18.684 106.4 219.561 133 274.451" fill="none"/></svg>