<svg height="auto" viewBox="0 0 2000 1400" xmlns="http://www.w3.org/2000/svg"><path d="M0 1391.404c26.6-9.312 79.8-16.402 133-46.557 53.2-30.154 79.8-78.75 133-104.215 53.2-25.466 79.8.146 133-23.112s79.8-56.908 133-93.178c53.2-36.27 79.8-69.649 133-88.17 53.2-18.523 79.8 41.37 133-4.44 53.2-45.812 79.8-152.707 133-224.618s79.8-169.24 133-134.938c53.2 34.303 79.8 329.319 133 306.452 53.2-22.868 79.8-300.708 133-420.79 53.2-120.08 79.8-187.523 133-179.615 53.2 7.909 79.8 146.808 133 219.158s79.8 196.59 133 142.595c53.2-53.994 79.8-337.46 133-412.566 53.2-75.105 106.4 29.632 133 37.04l5 1035.55H0Z" fill="#66f"/><path d="M0 1391.404c26.6-9.312 79.8-16.402 133-46.557 53.2-30.154 79.8-78.75 133-104.215 53.2-25.466 79.8.146 133-23.112s79.8-56.908 133-93.178c53.2-36.27 79.8-69.649 133-88.17 53.2-18.523 79.8 41.37 133-4.44 53.2-45.812 79.8-152.707 133-224.618s79.8-169.24 133-134.938c53.2 34.303 79.8 329.319 133 306.452 53.2-22.868 79.8-300.708 133-420.79 53.2-120.08 79.8-187.523 133-179.615 53.2 7.909 79.8 146.808 133 219.158s79.8 196.59 133 142.595c53.2-53.994 79.8-337.46 133-412.566 53.2-75.105 106.4 29.632 133 37.04" fill="none"/></svg>