<?xml version="1.0" encoding="UTF-8"?>
<svg id="b" data-name="Layer 2" xmlns="http://www.w3.org/2000/svg" width="18" height="14" viewBox="0 0 18 14">
  <g id="c" data-name="Layer 1">
    <g>
      <path fill="#6666ff" d="m17,14H1c-.552,0-1-.447-1-1v-3c0-.68.234-1.346.658-1.874L4.658,3.126c.98-1.226,2.885-1.469,4.143-.524l1.674,1.254,2.185-2.729c.57-.717,1.424-1.127,2.341-1.127.679,0,1.343.232,1.873.657.716.572,1.126,1.426,1.126,2.343v10c0,.553-.448,1-1,1Z"/>
      <path fill="#6666ff" d="m2,12h14V3c0-.307-.137-.59-.375-.779-.227-.183-.465-.221-.624-.221-.306,0-.591.137-.782.376l-2.789,3.485c-.337.423-.949.5-1.381.176l-2.449-1.837c-.422-.316-1.055-.233-1.381.176l-4,5c-.181.228-.219.464-.219.624v2Z"/>
    </g>
  </g>
</svg>