<?xml version="1.0" encoding="UTF-8"?>
<svg xmlns="http://www.w3.org/2000/svg" width="144.639" height="141.37" xmlns:xlink="http://www.w3.org/1999/xlink" viewBox="0 0 144.639 141.37">
  <defs>
    <linearGradient id="d" x1="24.222" y1="123.623" x2="116.802" y2="18.142" gradientUnits="userSpaceOnUse">
      <stop offset="0" stop-color="#6cbefc"/>
      <stop offset="1" stop-color="#2c1bb2"/>
    </linearGradient>
    <radialGradient id="e" cx="141.864" cy="21.583" fx="141.864" fy="21.583" r="75.731" gradientUnits="userSpaceOnUse">
      <stop offset=".001" stop-color="#65abfb"/>
      <stop offset=".267" stop-color="#5581e1"/>
      <stop offset=".863" stop-color="#2d18a0"/>
      <stop offset="1" stop-color="#240091"/>
    </radialGradient>
    <radialGradient id="f" cx="56.572" cy="88.77" fx="56.572" fy="88.77" r="13.646" xlink:href="#e"/>
    <linearGradient id="g" x1="144.27" y1="49.864" x2="5.991" y2="49.864" gradientUnits="userSpaceOnUse">
      <stop offset=".001" stop-color="#65abfb"/>
      <stop offset="1" stop-color="#240091"/>
    </linearGradient>
  </defs>
  <g isolation="isolate">
    <g id="b" data-name="Layer 2">
      <g id="c" data-name="OBJECTS">
        <g>
          <path d="m131.24,34.2c-1.04-1.74-2.17-3.43-3.36-5.07C116.37,13.311,98.44,2.45,77.92.36c-.04,0-.08,0-.12-.01-2.14-.21-4.32-.33-6.51-.34-.13-.01-.26-.01-.39-.01h-.21C57.85,0,45.81,3.421,35.43,9.4,14.25,21.61,0,44.48,0,70.69c0,39.04,31.65,70.68,70.69,70.68s70.68-31.64,70.68-70.68c0-13.35-3.69-25.84-10.13-36.49Zm-24.97,37.39c-.02.49-.04.97-.07,1.45-.01.17-.02.35-.04.53-.01.23-.03.45-.06.68-.02.23-.04.46-.07.69-.07.59-.15,1.16-.25,1.73-.03.19-.07.39-.1.58-.04.16-.06.31-.09.46-.06.28-.12.55-.18.83-.12.55-.26,1.09-.41,1.63-.04.17-.09.34-.14.51-.2.68-.41,1.34-.65,2-.09.27-.19.53-.3.8-.09.25-.19.51-.3.76-.18.44-.37.87-.57,1.3-.1.22-.2.43-.3.64-.06.13-.13.26-.19.4l-.39.75c-.57,1.08-1.2,2.13-1.89,3.15-.12.19-.25.38-.39.57-.27.39-.55.77-.83,1.14-.29.38-.58.74-.87,1.11-.14.16-.28.33-.42.49-.84.99-1.74,1.93-2.69,2.83-.17.16-.34.32-.52.48-.1.08-.19.16-.28.25-.35.31-.7.6-1.05.89-.23.19-.45.37-.69.55-.21.17-.44.34-.66.51-.97.71-1.96,1.37-3,1.99-.17.1-.34.21-.51.3-.25.14-.49.28-.74.41-.5.27-1.01.53-1.53.78-.24.12-.5.24-.74.34-.19.09-.37.17-.56.25-.18.08-.35.15-.53.22-.16.07-.31.14-.47.2-.27.1-.53.2-.8.3-.18.07-.38.14-.57.2-.55.2-1.1.38-1.66.54h-.01c-.35.11-.7.2-1.06.29-.28.08-.56.15-.85.22l-.42.09c-.29.07-.59.13-.89.18-.26.06-.52.1-.79.15-.88.15-1.77.27-2.67.35-.33.03-.67.06-1,.08-.37.03-.75.05-1.14.06-4.21-.11-8.31-.7-12.25-1.71-.01,0-.02,0-.04-.02-.89-.29-1.76-.61-2.62-.97l-.01-.01h-.02c-1.23-.51-2.42-1.1-3.58-1.74l-.48-.27c-.26-.15-.53-.31-.79-.46-.09-.06-.18-.11-.26-.17-.26-.16-.51-.32-.76-.48-.18-.12-.36-.24-.54-.37-.22-.14-.43-.3-.64-.45-.12-.08-.24-.17-.36-.26-.23-.17-.46-.34-.69-.52-.12-.09-.24-.18-.36-.28-.27-.22-.55-.44-.81-.67-.05-.04-.11-.09-.17-.14-.26-.22-.51-.45-.76-.68-.12-.1-.22-.2-.34-.3-.19-.17-.38-.36-.57-.54l-.39-.39c-.27-.27-.54-.55-.8-.83-.02-.01-.02-.02-.04-.04-.22-.23-.43-.47-.64-.7-.15-.17-.29-.34-.43-.5-.02-.02-.03-.04-.05-.06-.26-.31-.52-.62-.76-.93-.3-.37-.59-.75-.87-1.13-.2-.28-.4-.56-.6-.85-.05-.08-.1-.16-.16-.24-.18-.27-.37-.55-.55-.84-.04-.06-.07-.12-.12-.18-.2-.33-.4-.66-.58-1-.47-.8-.91-1.62-1.31-2.46-.13-.27-.26-.54-.38-.82-.05-.11-.1-.21-.14-.32-.01-.01-.01-.03-.02-.04v-.01c-.14-.31-.27-.6-.39-.91-.34-.87-.66-1.75-.94-2.64-.13-.42-.25-.85-.37-1.27-.1-.36-.19-.72-.28-1.09-.02-.12-.05-.24-.08-.38-.08-.33-.15-.66-.21-.99-.08-.4-.15-.79-.22-1.18-.03-.22-.06-.42-.09-.63-.06-.39-.1-.78-.15-1.18-.03-.33-.07-.65-.09-.98-.01-.07-.02-.13-.02-.19-.03-.39-.05-.78-.06-1.17-.02-.13-.02-.26-.02-.38-.02-.4-.02-.8-.02-1.19,0-19.66,15.93-35.6,35.59-35.6,7.32,0,14.13,2.21,19.78,6,9.53,6.39,15.81,17.26,15.81,29.6,0,.3-.01.6-.01.9Z" fill="url(#d)"/>
          <path d="m70.855,1.284C37.919,1.284,11.219,27.983,11.219,60.919s26.7,59.635,59.635,59.635,59.635-26.7,59.635-59.635S103.79,1.284,70.855,1.284Zm0,104.362c-19.42,0-35.165-15.745-35.165-35.166s15.745-35.165,35.165-35.165,35.165,15.745,35.165,35.165-15.745,35.166-35.165,35.166Z" fill="#fff" mix-blend-mode="overlay" opacity=".3"/>
          <path d="m144.639,0c-.02.384-.04.762-.073,1.139-.033.371-.066.742-.106,1.112-.02.186-.04.364-.066.55-.04.311-.079.622-.126.927-.04.258-.079.516-.126.775-.06.344-.126.695-.192,1.04-.093.45-.192.894-.298,1.338-.073.291-.146.589-.225.881-.079.311-.166.616-.258.92-.119.404-.245.795-.377,1.185-.099.311-.205.622-.318.927-.152.424-.318.848-.483,1.265-.126.291-.245.583-.371.874-.146.325-.291.649-.444.973-.152.338-.318.662-.483.987-.165.325-.331.642-.51.96-.172.318-.344.629-.53.94-.199.344-.404.689-.622,1.026-.152.245-.311.497-.477.742-.013.02-.026.04-.046.066-.199.298-.397.589-.609.887-.205.291-.417.583-.636.867-.43.57-.874,1.132-1.344,1.675-.199.245-.411.477-.622.715-.04.053-.086.099-.132.146-.218.252-.45.497-.682.735-.245.258-.497.517-.748.768-.51.503-1.033.993-1.569,1.463-.238.212-.483.417-.728.622-.04.04-.086.073-.132.113-.258.212-.53.43-.795.636-.278.218-.55.43-.834.636-.033.026-.066.053-.106.079-.265.192-.53.378-.795.563-.291.205-.589.404-.894.602-.146.093-.291.185-.437.278-.265.172-.53.338-.795.49-.013.013-.033.026-.053.033-.298.179-.596.351-.894.516-.47.265-.947.516-1.43.755-.384.199-.775.384-1.165.563-.046.02-.093.046-.139.06-.311.146-.629.278-.947.41-.099.046-.192.086-.291.126-.384.159-.768.305-1.159.45-3.993,1.47-8.303,2.278-12.8,2.278h-37.081c-19.66,0-35.591,15.932-35.591,35.591,0,.397.007.795.02,1.192.007.126.007.252.02.384.013.391.033.775.066,1.165,0,.066.007.126.013.192.026.331.06.655.093.98.046.397.093.788.152,1.179.026.212.06.417.093.629.066.397.132.788.212,1.179.066.338.132.669.212,1,.027.132.06.258.086.377.086.364.179.728.278,1.086.113.424.238.848.371,1.271.278.894.596,1.775.94,2.642.126.318.258.636.404.954.046.112.093.218.139.324.126.278.252.55.384.821.404.841.834,1.662,1.304,2.463.185.338.384.669.589.993.046.06.079.119.119.185.179.285.364.563.55.841.053.079.106.152.159.232.199.291.397.576.603.854.278.384.569.761.861,1.132.245.311.503.622.761.927.02.02.033.04.053.06.139.165.285.331.43.497.205.238.424.477.642.708.013.013.02.027.033.033.265.285.53.563.808.834.126.132.252.258.384.384.192.186.384.371.576.543.113.106.218.205.331.305.252.232.51.457.768.675.06.053.113.099.166.146.265.225.536.45.814.662.119.099.238.192.358.285.225.179.457.351.689.516.119.093.238.179.358.265.212.152.424.305.642.444.179.132.358.252.543.371.252.166.497.324.755.483.086.06.172.113.265.166.258.159.523.311.788.463.159.093.318.185.477.271,1.159.642,2.351,1.225,3.582,1.735-3.324-.96-6.516-2.238-9.535-3.807-16.971-8.774-28.579-26.493-28.579-46.921,0-15.124,6.363-28.764,16.554-38.392C44.706,5.648,57.174.205,70.901.013c.086-.007.179-.007.271-.007h.119l.391-.007h72.957Z" fill="url(#e)"/>
          <path d="m56.99,103.541c-3.33-.96-6.52-2.24-9.54-3.81-1.17-.61-2.31-1.25-3.43-1.95-.05-.05-.08-.1-.12-.15-.2-.28-.4-.56-.6-.85-.05-.08-.1-.16-.16-.24-.18-.27-.37-.55-.55-.84-.04-.06-.07-.12-.12-.18-.2-.33-.4-.66-.58-1-.47-.8-.91-1.62-1.31-2.46-.13-.27-.26-.54-.38-.82-.05-.11-.1-.21-.14-.32-.15-.32-.28-.64-.41-.96-.34-.87-.66-1.75-.94-2.64-.13-.42-.25-.85-.37-1.27-.1-.36-.19-.72-.28-1.09,0-.03-.01-.05-.02-.08.01.01.01.03.02.04.04.11.09.21.14.32.12.28.25.55.38.82.4.84.84,1.66,1.31,2.46.18.34.38.67.58,1,.05.06.08.12.12.18.18.29.37.57.55.84.06.08.11.16.16.24.2.29.4.57.6.85.28.38.57.76.87,1.13.24.31.5.62.76.93.02.02.03.04.05.06.14.16.28.33.43.5.21.23.42.47.64.7.02.02.02.03.04.04.26.28.53.56.8.83l.39.39c.19.18.38.37.57.54.12.1.22.2.34.3.25.23.5.46.76.68.06.05.12.1.17.14.26.23.54.45.81.67.12.1.24.19.36.28.23.18.46.35.69.52.12.09.24.18.36.26.21.15.42.31.64.45.18.13.36.25.54.37.25.16.5.32.76.48.08.06.17.11.26.17.26.15.53.31.79.46l.48.27c1.16.64,2.35,1.23,3.58,1.74Z" fill="url(#f)"/>
          <path d="m131.24,34.2c-.16.12-.31.22-.47.33-.29.21-.59.41-.89.6-.15.1-.29.19-.44.28-.26.17-.53.34-.79.49-.01.02-.03.03-.05.04-.3.17-.6.35-.9.51-.47.27-.95.52-1.43.76-.38.2-.77.38-1.16.56-.05.02-.1.05-.14.06-.31.15-.63.28-.95.41-.1.05-.19.09-.29.13-.39.15-.77.3-1.16.45-3.99,1.47-8.3,2.27-12.8,2.27h-19.3c-5.65-3.79-12.46-6-19.78-6h37.08c4.5,0,8.81-.8,12.8-2.27.39-.15.77-.3,1.16-.45.1-.04.19-.08.29-.13.32-.13.64-.26.95-.41.04-.01.09-.04.14-.06.39-.18.78-.36,1.16-.56.48-.24.96-.49,1.43-.76.3-.16.6-.34.9-.51.02-.01.04-.02.05-.04.26-.15.53-.32.79-.49.15-.09.29-.18.44-.28,1.19,1.64,2.32,3.33,3.36,5.07Z" opacity=".2"/>
          <path d="m144.043,0c-.377.49-.768.967-1.172,1.437-.252.311-.523.602-.788.901-.053.073-.113.126-.165.185-.278.318-.576.629-.867.934-.311.324-.629.649-.947.973-.642.636-1.304,1.251-1.986,1.847-.298.272-.609.53-.92.788-.053.053-.112.093-.165.146-.331.265-.675.543-1.006.801-.358.278-.695.55-1.059.808-.04.033-.086.066-.132.099-.338.245-.669.477-1.006.715-.371.258-.748.51-1.132.761-.185.119-.371.232-.556.351-.331.218-.669.43-1,.622-.02.013-.046.033-.073.04-.377.225-.748.444-1.126.655-.596.331-1.198.656-1.814.954-.483.252-.98.49-1.477.715-.06.027-.113.06-.172.073-.397.185-.801.351-1.198.523-.126.053-.245.106-.371.159-.483.199-.973.384-1.463.569-5.059,1.861-10.515,2.88-16.203,2.88h-33.697c-24.891,0-45.06,20.169-45.06,45.053,0,.503.013,1.007.026,1.51.007.159.007.318.026.49.02.49.04.98.086,1.47,0,.086.007.159.013.245.033.417.079.828.119,1.238.06.503.119,1,.192,1.496.033.265.073.53.119.795.079.503.165,1,.265,1.49.086.43.172.848.271,1.271.033.166.073.324.106.477.113.457.225.92.351,1.371.146.536.305,1.073.47,1.609.351,1.132.755,2.251,1.192,3.344.159.404.324.808.51,1.212.06.139.119.278.179.41.159.351.318.695.483,1.04.51,1.066,1.059,2.099,1.655,3.119.232.424.483.848.742,1.258.06.073.106.146.152.232.225.358.463.715.695,1.066.066.099.132.192.205.291.252.371.503.728.761,1.079.351.49.722.967,1.086,1.437.311.391.642.788.967,1.172.026.026.04.053.066.073.179.212.358.424.543.629.265.305.536.609.814.9.02.013.026.033.04.04.338.364.675.715,1.026,1.06.159.166.318.324.483.483.245.238.49.47.728.689.146.132.278.258.424.384.318.291.642.576.973.854.073.066.139.126.205.185.338.285.682.569,1.033.841.152.126.298.238.45.358.285.225.583.444.874.655.152.119.298.225.45.331.06.046.126.093.185.132-16.971-8.774-28.579-26.493-28.579-46.921,0-15.124,6.363-28.764,16.554-38.392C44.706,5.648,57.174.205,70.901.013c.086-.007.179-.007.271-.007h.119l.391-.007h72.361Z" fill="url(#g)"/>
        </g>
      </g>
    </g>
  </g>
</svg>
