<?xml version="1.0" encoding="UTF-8"?>
<svg id="b" data-name="Layer 2" xmlns="http://www.w3.org/2000/svg" width="18" height="18" viewBox="0 0 18 18">
  <g id="c" data-name="Layer 1">
    <path fill="#ffcc66" d="m13,9c0-.55-.45-1-1-1h-3c-.55,0-1,.45-1,1s.45,1,1,1h3c.55,0,1-.45,1-1Z"/>
    <path fill="#ffcc66" d="m9,2c3.859,0,7,3.141,7,7s-3.141,7-7,7-7-3.141-7-7,3.141-7,7-7m0-2C4.029,0,0,4.029,0,9s4.029,9,9,9,9-4.029,9-9S13.971,0,9,0Z"/>
    <path fill="#ffcc66" d="m10,6c0-.55-.45-1-1-1s-1,.45-1,1v3c0,.55.45,1,1,1s1-.45,1-1v-3Z"/>
    <path fill="#ffcc66" d="m9,4c2.757,0,5,2.243,5,5s-2.243,5-5,5-5-2.243-5-5,2.243-5,5-5m0-1c-3.312,0-6,2.686-6,6s2.688,6,6,6,6-2.688,6-6-2.688-6-6-6Z"/>
  </g>
</svg>