<svg xmlns="http://www.w3.org/2000/svg" xmlns:xlink="http://www.w3.org/1999/xlink" width="113.985" height="113.985" xmlns:v="https://vecta.io/nano"><defs><linearGradient id="A" x1="0" y1="49.03" x2="96.933" y2="49.03" gradientUnits="userSpaceOnUse"><stop offset="0"/></linearGradient><linearGradient id="B" x1="17.052" y1="64.956" x2="113.985" y2="64.956" xlink:href="#A"/></defs><path d="M.659 48.297l-.008.053-.011.07-.043.294v.009l-.002.007v.002l-.008.057-.023.176-.023.153-.004.027-.006.046v.004l-.003.024-.004.023-.002.011-.005.047-.004.036v.006l-.006.024-.074.567-.058.511-.022.194v.006l-.002.009v.004l-.068.619-.043.466v.015l-.015.154-.015.183-.016.194-.008.1-.013.149-.012.186-.006.087-.046.687v.003l-.003.012-.016.324-.017.338v.01l-.003.035c0 .013-.002.025-.002.037 0 .025-.002.05-.004.077v.04l-.003.037-.015.383-.006.163-.019.675c-.003.034-.003.071-.003.107v.077l-.009.549-.002.104v.046l-.001.193-.002.167-.001.119.001.118.002.164v.181l.003.153c.16 10.838 4.502 21.005 12.228 28.623a40.81 40.81 0 0 0 28.834 11.826c1.726 0 3.438-.114 5.131-.324.767-.095 1.532-.204 2.291-.342-5.622-3.398-10.486-7.946-14.303-13.42-1.385-1.984-2.607-4.056-3.66-6.199-.237-.483-.463-.97-.684-1.46-.024-.053-.051-.106-.075-.159-2.665-5.987-4.049-12.483-4.049-19.161a46.91 46.91 0 0 1 8.468-26.979c1.272-1.824 2.664-3.541 4.158-5.151a47.05 47.05 0 0 1 17.54-11.904 46.98 46.98 0 0 1 6.226-1.926c3.521-.825 7.136-1.242 10.807-1.242 8.578 0 16.818 2.279 24.016 6.547-.007-.008-.01-.012-.015-.015l-.202-.199-.272-.26-.084-.08-.003-.002-.022-.019-.008-.009-.013-.015c-.077-.074-.165-.154-.248-.231l-.264-.247-.01-.011-.009-.01-.022-.018c-.015-.014-.03-.027-.045-.042l-.301-.277-.019-.018-.132-.12-.066-.059-.434-.392-.484-.423c-.05-.044-.105-.088-.156-.133l-.332-.282-.221-.185-.12-.101-.003-.006-.089-.073-.046-.038-.386-.316-.019-.017-.009-.007-.012-.01-.015-.012c-.095-.08-.193-.156-.288-.233h0l-.015-.012-.006-.003-.951-.745-.006-.006-.009-.006c-.086-.068-.172-.132-.261-.2l-.105-.08-.064-.049c-.014-.012-.029-.022-.044-.033l-.018-.013-.011-.009-.009-.006-.016-.01-.18-.135-.065-.049-.245-.181-.078-.056-.14-.1-.098-.071v-.002l-.011-.008-.007-.003c-.096-.072-.193-.14-.29-.208-.023-.016-.046-.034-.069-.05l-.027-.019-.025-.018-.712-.497-.006-.003-.003-.002-.01-.005-.322-.22c-.026-.017-.051-.035-.077-.053l-.003-.003-.009-.006-.483-.317c-.009-.006-.017-.012-.026-.017h0l-.027-.018c-.034-.023-.069-.044-.103-.067l-.348-.225-.018-.012h-.001l-.017-.012c-.172-.114-.347-.221-.525-.331l-.018-.01-.003-.002-.025-.015a14.88 14.88 0 0 0-.543-.334l-.288-.175-.003-.003L86.135 8l-.165-.099-.011-.006h0l-.009-.006-.101-.059-.392-.227-.098-.058-.135-.077-.362-.208c-.012-.007-.024-.012-.036-.019-.808-.452-1.633-.886-2.461-1.299-.018-.009-.037-.02-.055-.029l-.009-.004-.006-.003-.019-.009a11.74 11.74 0 0 0-.552-.27l-.488-.233-.003-.003c-.013-.007-.028-.013-.043-.02-.009-.004-.018-.008-.028-.013l-.012-.006h-.004c-.585-.276-1.115-.512-1.627-.73l-.014-.007-.011-.005-.012-.004-.013-.005c-.123-.056-.245-.107-.371-.16l-.052-.021-.037-.016-.007-.004L79 4.398l-.221-.092-.237-.096-.11-.045-1.414-.552-.248-.092-.034-.012-.261-.098c-.696-.252-1.42-.5-2.147-.73l-.009-.003-.009-.003c-.012-.004-.024-.007-.036-.011l-.415-.13-.427-.131-.254-.078-.905-.258-.015-.002h-.004l-.018-.007-.118-.032-.188-.051-.039-.011-.056-.016c-.599-.161-1.211-.305-1.824-.447l-1.085-.242-1.839-.371L66.4.771l-.012-.003h-.015l-.687-.111-.319-.047-.399-.06a56.13 56.13 0 0 0-1.977-.24 58.7 58.7 0 0 0-3.849-.27 56.99 56.99 0 0 0-2.147-.043 57.61 57.61 0 0 0-3.62.12l-.381.02c-1.333.093-2.66.231-3.973.413l-.705.104-.027.006h0L.663 48.281l-.003.015z" fill="url(#A)"/><path d="M113.338 65.618l.006-.043.006-.046.033-.242.003-.018.003-.031.006-.034.046-.316.006-.07.012-.071.015-.098.043-.356.034-.245.08-.678.003-.031.064-.613.046-.485v-.009l.015-.153.028-.334.003-.043.003-.043.033-.432v-.021l.003-.037.046-.677v-.016l.04-.656.003-.065v-.089l.003-.089.025-.549.022-.721.003-.031v-.107l.006-.512v-.193l.003-.031.003-.439-.003-.46v-.012l-.003-.147a40.82 40.82 0 0 0-12.224-28.623c-7.735-7.627-17.974-11.826-28.837-11.826a41.49 41.49 0 0 0-7.422.666c5.622 3.398 10.486 7.949 14.304 13.424a46.91 46.91 0 0 1 8.468 26.979 46.91 46.91 0 0 1-8.468 26.979 47.13 47.13 0 0 1-21.701 17.052c-5.425 2.101-11.154 3.168-17.03 3.168-8.578 0-16.815-2.279-24.016-6.544l.012.012.033.03.031.031a1.23 1.23 0 0 0 .104.101l.113.111c.092.092.184.181.279.27l.015.015.019.016.512.484.028.022.024.025.353.328.009.009.012.009c.205.19.414.377.629.564l.013.009.012.012.417.368.027.021.092.08.009.003.405.35.083.071.019.018.331.273.043.034.04.037c.095.083.202.169.322.264l.04.031.037.031c.086.074.171.144.254.205l.028.022.025.021a38.67 38.67 0 0 0 .938.733c.067.055.138.107.205.16l.236.178c.046.034.089.064.129.098l.077.055.383.285.12.086.193.138.024.018.028.019c.092.07.19.138.285.206l.104.074.711.497.022.012.022.015c.104.074.212.144.316.215l.08.052.264.175.279.187.439.282.441.282h.362l.647.616c.098.062.199.123.3.181l.595.343.018.012.018.012c.156.092.313.178.472.267.84.475 1.693.926 2.545 1.347l.564.276.083.043.53.251a53.55 53.55 0 0 0 1.622.727l.012.003.012.006.402.172c.04.015.083.034.129.055l.537.221 1.41.549.016.006.015.006.463.172.021.006.018.006c.727.267 1.448.512 2.141.73l.024.009.021.006a11.36 11.36 0 0 0 .42.135l.022.003.018.006.635.196.178.052.757.215.392.107.031.006c1.57.423 3.168.779 4.745 1.058l.018.006.018.003.653.113h.015l.012.003.659.104.031.003.031.006c.221.037.445.067.666.098l.018.003a58.07 58.07 0 0 0 7.971.552 58.16 58.16 0 0 0 7.977-.552l.055-.009.628-.092.031-.006.022-.003 47.622-47.621a.79.79 0 0 1 .012-.083z" fill="url(#B)"/></svg>